<svg width="24" height="24" viewBox="0 0 24 24" fill="none" xmlns="http://www.w3.org/2000/svg">
<path fill-rule="evenodd" clip-rule="evenodd" d="M11.0999 1.25C7.70436 1.25 5.07718 4.22603 5.49834 7.59536L5.5777 8.23021C5.69382 9.15916 5.35449 10.0871 4.66648 10.7219C3.2408 12.0375 2.84471 14.1315 3.69136 15.8769L3.79471 16.09C4.54086 17.6282 6.05592 18.6356 7.74722 18.7409L7.9355 19.0636C8.94829 20.7998 10.5263 21.75 12.1833 21.75C13.8404 21.75 15.4184 20.7998 16.4312 19.0636L16.6224 18.7358C18.0431 18.6235 19.3384 17.8513 20.111 16.6373C21.2931 14.7799 20.98 12.3432 19.3667 10.845L19.3229 10.8042C18.5843 10.1183 18.2207 9.11912 18.3457 8.11901L18.4103 7.60208C18.832 4.22918 16.202 1.25 12.8028 1.25H11.0999ZM8.16911 17.25C8.17813 17.2498 8.18715 17.2498 8.19615 17.25H16.1705C16.1795 17.2498 16.1885 17.2498 16.1976 17.25H16.2622C17.3091 17.25 18.2835 16.7152 18.8455 15.832C19.639 14.5852 19.4288 12.9497 18.346 11.9441L18.3021 11.9033C17.2101 10.8892 16.6725 9.41174 16.8573 7.93296L16.9219 7.41603C17.2316 4.93841 15.2997 2.75 12.8028 2.75H11.0999C8.60661 2.75 6.6775 4.93526 6.98676 7.40931L7.06612 8.04416C7.24228 9.45345 6.72749 10.8611 5.68373 11.8243C4.74397 12.6915 4.48288 14.0718 5.04096 15.2223L5.14431 15.4353C5.68268 16.5452 6.80784 17.25 8.04141 17.25H8.16911ZM12.1833 20.25C11.2622 20.25 10.2794 19.7877 9.52007 18.75H14.8466C14.0873 19.7877 13.1045 20.25 12.1833 20.25Z" fill="#2D264B"/>
</svg>
